<svg width="220" height="40" viewBox="0,0,320,50" xmlns="http://www.w3.org/2000/svg" xmlns:xlink="http://www.w3.org/1999/xlink"><g><rect x="0" y="18" width="46" height="10" fill="#eff3ff"/><rect x="46" y="18" width="45" height="10" fill="#c6dbef"/><rect x="91" y="18" width="46" height="10" fill="#9ecae1"/><rect x="137" y="18" width="46" height="10" fill="#6baed6"/><rect x="183" y="18" width="46" height="10" fill="#4292c6"/><rect x="229" y="18" width="45" height="10" fill="#2171b5"/><rect x="274" y="18" width="46" height="10" fill="#084594"/></g><g transform="translate(0,28)" fill="none" font-size="10" font-family="sans-serif" text-anchor="middle"><g class="tick" opacity="1" transform="translate(46,0)"><line stroke="currentColor" y2="6" y1="-10"/><text fill="currentColor" y="9" dy="0.71em">27</text></g><g class="tick" opacity="1" transform="translate(91,0)"><line stroke="currentColor" y2="6" y1="-10"/><text fill="currentColor" y="9" dy="0.71em">29</text></g><g class="tick" opacity="1" transform="translate(137,0)"><line stroke="currentColor" y2="6" y1="-10"/><text fill="currentColor" y="9" dy="0.71em">31</text></g><g class="tick" opacity="1" transform="translate(183,0)"><line stroke="currentColor" y2="6" y1="-10"/><text fill="currentColor" y="9" dy="0.71em">33</text></g><g class="tick" opacity="1" transform="translate(229,0)"><line stroke="currentColor" y2="6" y1="-10"/><text fill="currentColor" y="9" dy="0.71em">35</text></g><g class="tick" opacity="1" transform="translate(274,0)"><line stroke="currentColor" y2="6" y1="-10"/><text fill="currentColor" y="9" dy="0.71em">37</text></g><text x="0" y="-16" fill="currentColor" text-anchor="start" font-weight="bold" class="title">Rate of Depression/Anxiety symptoms (%)</text></g></svg>